<?xml version="1.0" standalone="no"?>
<!DOCTYPE svg PUBLIC "-//W3C//DTD SVG 20010904//EN"
 "http://www.w3.org/TR/2001/REC-SVG-20010904/DTD/svg10.dtd">
<svg version="1.0" xmlns="http://www.w3.org/2000/svg"
 width="418.000000pt" height="457.000000pt" viewBox="0 0 418.000000 457.000000"
 preserveAspectRatio="xMidYMid meet">

<g transform="translate(0.000000,457.000000) scale(0.100000,-0.100000)"
fill="#000000" stroke="none">
<path d="M1918 4433 l-3 -138 -55 -6 c-30 -4 -76 -10 -101 -14 l-47 -7 -41
125 c-26 78 -47 124 -54 122 -42 -13 -332 -108 -334 -110 -2 -1 15 -55 37
-121 22 -65 39 -122 38 -126 -2 -4 -44 -27 -93 -51 l-91 -44 -74 104 c-43 60
-79 102 -86 99 -34 -13 -283 -203 -279 -213 2 -6 33 -52 69 -102 36 -50 66
-94 66 -98 0 -4 -32 -40 -71 -79 l-71 -72 -101 74 c-55 41 -103 74 -107 74 -9
0 -210 -275 -210 -287 0 -6 43 -41 95 -78 52 -38 95 -73 95 -78 0 -5 -21 -49
-47 -97 l-46 -87 -116 38 c-63 22 -118 36 -122 31 -8 -9 -109 -313 -109 -329
0 -6 50 -28 110 -48 73 -24 110 -42 110 -51 0 -8 -7 -60 -17 -114 l-16 -100
-124 0 -123 0 0 -185 0 -184 123 -3 122 -3 7 -68 c5 -37 12 -85 17 -107 6 -27
5 -42 -3 -48 -6 -5 -55 -24 -108 -41 -54 -18 -98 -38 -98 -44 0 -16 101 -320
109 -330 4 -4 54 9 111 28 57 19 105 35 107 35 5 0 93 -179 93 -189 0 -5 -38
-38 -85 -72 -47 -35 -85 -67 -85 -72 0 -12 201 -287 209 -287 4 0 44 27 89 60
45 33 86 60 90 60 17 0 154 -149 149 -162 -3 -7 -62 -83 -131 -168 l-126 -155
27 -23 c77 -64 240 -176 336 -232 248 -142 508 -234 792 -280 137 -23 513 -28
652 -10 410 55 813 227 1150 492 l63 50 -38 48 c-20 26 -71 90 -113 141 -42
52 -84 107 -94 122 l-18 28 74 75 c40 41 77 74 82 74 4 0 42 -25 83 -56 42
-30 81 -57 88 -60 11 -4 216 263 216 283 0 5 -38 37 -85 72 -47 34 -85 67 -85
71 0 10 89 190 93 190 2 0 50 -16 107 -35 57 -19 107 -32 111 -28 8 10 109
314 109 330 0 6 -46 27 -102 46 l-103 34 2 49 c1 27 6 78 10 114 l8 65 113 3
112 3 0 184 0 185 -113 0 -113 0 -17 103 c-9 56 -17 107 -17 114 0 6 50 28
110 48 67 22 110 42 110 50 0 17 -100 317 -109 327 -4 5 -59 -9 -122 -31
l-114 -38 -48 88 c-26 48 -47 92 -47 96 0 4 43 39 95 77 52 38 95 74 95 79 0
11 -201 287 -210 287 -3 0 -48 -31 -100 -70 -52 -38 -100 -70 -105 -70 -11 0
-145 131 -145 142 0 4 32 51 70 104 39 54 69 101 68 105 -4 9 -278 209 -287
209 -4 0 -38 -43 -75 -96 -38 -53 -75 -98 -81 -101 -10 -3 -166 67 -183 82 -2
2 14 59 37 127 l40 123 -171 57 c-95 32 -173 56 -176 54 -2 -2 -21 -56 -41
-120 -21 -64 -41 -119 -44 -122 -3 -3 -41 -1 -84 6 -139 20 -123 1 -123 155
l0 135 -180 0 -179 0 -3 -137z m324 -35 l3 -133 110 -16 c61 -9 121 -20 135
-23 25 -7 26 -4 64 119 23 74 44 124 50 122 6 -3 65 -21 131 -42 66 -20 123
-40 127 -43 3 -4 -11 -61 -32 -127 -22 -65 -38 -120 -37 -121 7 -6 233 -119
239 -119 4 0 39 45 78 100 39 55 76 99 82 97 9 -2 205 -139 227 -158 2 -2 -10
-20 -26 -41 -16 -21 -50 -67 -75 -103 l-46 -66 97 -97 97 -97 103 76 c57 41
104 74 105 72 2 -2 38 -50 81 -107 43 -57 78 -109 79 -116 0 -7 -43 -45 -97
-85 l-97 -72 25 -41 c14 -23 44 -77 66 -119 21 -43 42 -78 46 -78 4 0 56 16
116 36 60 19 111 33 113 31 3 -2 24 -63 49 -136 31 -92 40 -133 32 -136 -7 -2
-55 -19 -107 -36 -52 -17 -98 -35 -102 -38 -6 -5 9 -110 38 -268 4 -22 8 -23
124 -23 l120 0 0 -145 0 -145 -118 0 -118 0 -17 -122 c-10 -68 -20 -134 -23
-148 -5 -24 -1 -27 83 -54 48 -16 98 -32 110 -37 22 -8 22 -8 -23 -144 -25
-74 -49 -135 -54 -135 -4 0 -52 16 -106 35 -54 19 -99 35 -100 35 -3 0 -124
-245 -124 -253 0 -4 37 -35 83 -68 45 -34 84 -63 86 -65 3 -2 -75 -115 -152
-218 -13 -17 -18 -15 -103 47 l-89 66 -95 -93 c-153 -151 -486 -356 -719 -444
-488 -185 -964 -139 -1456 140 -169 96 -328 210 -425 305 l-95 92 -89 -65
c-48 -36 -89 -64 -91 -62 -12 11 -165 224 -165 229 0 3 36 32 81 63 44 32 83
64 85 70 4 9 -105 238 -120 253 -1 2 -47 -13 -100 -32 -54 -19 -102 -35 -106
-35 -11 0 -101 269 -92 274 4 2 52 18 107 36 55 18 101 34 103 35 2 2 -3 41
-12 87 -8 45 -18 111 -22 146 l-7 62 -118 0 -119 0 0 145 0 145 120 0 c116 0
120 1 124 23 16 84 39 226 40 246 1 22 -9 27 -99 57 -55 19 -105 36 -112 38
-8 4 2 46 33 140 25 75 49 136 53 136 4 0 54 -16 111 -35 57 -19 107 -35 112
-35 4 0 23 31 42 68 19 38 48 92 65 120 l30 51 -99 73 c-55 40 -99 75 -100 78
0 4 144 203 165 228 2 2 49 -31 106 -72 l102 -75 98 97 c56 56 94 101 90 107
-39 49 -142 197 -139 200 23 19 217 155 225 157 6 2 43 -42 83 -97 40 -55 73
-101 74 -102 1 -2 235 115 243 121 1 1 -15 56 -36 122 -21 65 -36 122 -32 126
7 7 263 89 267 85 1 -1 19 -56 39 -122 21 -66 39 -121 40 -123 1 -1 35 4 76
12 41 8 101 18 134 23 l60 8 3 133 3 132 139 0 139 0 3 -132z m-1215 -3464
c235 -157 525 -285 758 -335 127 -27 375 -37 509 -20 291 37 622 175 929 389
42 29 81 52 86 50 8 -3 187 -221 230 -280 17 -23 23 -17 -109 -112 -293 -212
-641 -355 -996 -412 -139 -22 -407 -29 -545 -15 -411 42 -804 195 -1139 441
-52 39 -95 75 -95 81 0 12 227 298 237 299 4 0 65 -39 135 -86z"/>
<path d="M1967 4173 c-2 -5 -12 -44 -21 -88 -10 -44 -20 -88 -22 -97 -4 -13 0
-18 14 -18 11 0 22 9 25 20 7 29 63 28 72 -1 8 -23 42 -22 37 2 -1 8 -16 53
-33 102 -24 66 -36 87 -50 87 -10 0 -20 -3 -22 -7z m37 -85 c9 -34 8 -38 -9
-38 -10 0 -15 10 -15 30 0 35 15 40 24 8z"/>
<path d="M2100 4081 c0 -111 0 -111 76 -111 37 0 44 3 44 20 0 17 -7 20 -40
20 l-40 0 0 85 c0 78 -2 85 -20 85 -19 0 -20 -7 -20 -99z"/>
<path d="M1843 4155 c-3 -9 -1 -39 5 -68 6 -29 9 -53 8 -54 -1 -2 -21 24 -45
57 -38 55 -63 72 -74 53 -3 -5 3 -51 12 -103 13 -73 21 -96 34 -98 20 -4 20 1
6 68 -6 28 -9 54 -6 56 3 3 22 -20 43 -50 38 -54 74 -74 74 -40 0 9 -7 56 -16
105 -16 85 -28 107 -41 74z"/>
<path d="M2316 4103 c-4 -38 -9 -85 -13 -105 -5 -33 -3 -38 14 -38 18 0 21 9
27 68 4 37 9 84 13 105 5 32 3 37 -14 37 -18 0 -21 -9 -27 -67z"/>
<path d="M2407 4143 c-2 -4 -12 -42 -21 -83 -9 -41 -19 -83 -22 -92 -4 -13 0
-18 14 -18 16 0 22 12 32 61 15 68 22 64 39 -23 8 -34 18 -59 28 -62 9 -4 17
-5 18 -4 4 5 45 184 45 197 0 6 -6 11 -14 11 -9 0 -19 -20 -26 -52 -19 -79
-23 -79 -40 -3 -11 48 -20 71 -32 73 -9 2 -18 -1 -21 -5z"/>
<path d="M1586 4099 c-21 -17 -26 -29 -26 -67 0 -55 15 -88 52 -115 42 -31
100 -7 114 47 8 34 -14 105 -41 132 -30 29 -64 31 -99 3z m79 -39 c25 -27 26
-98 3 -114 -25 -15 -50 2 -67 48 -25 67 20 114 64 66z"/>
<path d="M2588 4090 c-9 -6 -20 -24 -23 -42 -7 -29 -3 -35 34 -67 29 -26 38
-40 32 -50 -13 -21 -61 -6 -61 19 0 13 -7 20 -20 20 -37 0 -22 -53 21 -75 38
-20 55 -19 79 5 32 32 26 73 -15 104 -42 32 -46 56 -9 56 17 0 28 -6 31 -19 8
-33 33 -34 33 -2 0 49 -56 77 -102 51z"/>
<path d="M1473 4062 c-19 -12 54 -194 75 -190 19 4 19 4 -20 111 -34 90 -35
92 -55 79z"/>
<path d="M2734 4045 c-7 -18 3 -35 22 -35 20 0 18 -10 -16 -82 -33 -70 -37
-88 -16 -88 8 0 29 31 47 70 30 67 34 70 59 65 19 -4 29 -2 33 9 7 18 9 17
-66 50 -47 21 -59 23 -63 11z"/>
<path d="M1373 4022 c-67 -29 -67 -29 -54 -51 7 -10 13 -11 31 -1 12 6 23 10
24 8 1 -2 16 -34 33 -73 17 -39 38 -71 47 -73 23 -5 20 10 -15 90 -31 71 -31
78 5 91 6 2 6 10 0 19 -8 15 -15 14 -71 -10z"/>
<path d="M2841 3899 c-39 -85 -43 -109 -20 -109 16 0 98 184 85 192 -20 13
-22 10 -65 -83z"/>
<path d="M1237 3947 c-15 -11 -15 -18 2 -87 10 -41 22 -87 25 -102 8 -35 36
-27 36 11 0 16 8 31 21 39 18 11 24 11 40 -4 18 -16 21 -16 35 -2 14 13 7 22
-64 86 -67 61 -81 70 -95 59z m64 -110 c-14 -14 -19 -8 -27 34 l-7 34 23 -28
c17 -21 20 -31 11 -40z"/>
<path d="M2938 3938 c-3 -7 4 -20 15 -28 19 -15 18 -18 -22 -80 -43 -69 -50
-90 -27 -90 8 0 34 31 57 70 41 66 44 69 65 55 22 -14 34 -11 34 11 0 13 -89
74 -108 74 -5 0 -12 -6 -14 -12z"/>
<path d="M1120 3869 c0 -6 16 -33 36 -60 20 -27 33 -49 29 -49 -4 0 -34 16
-67 36 -52 32 -62 35 -74 22 -13 -12 -7 -25 42 -94 31 -43 58 -81 60 -83 3 -3
10 1 16 7 9 9 4 22 -19 54 -49 71 -48 72 19 34 39 -21 72 -34 82 -30 9 3 16 8
16 11 0 2 -26 40 -57 84 -51 72 -83 98 -83 68z"/>
<path d="M1864 3846 c-509 -97 -914 -440 -1083 -919 -57 -162 -75 -272 -75
-462 1 -190 19 -301 75 -462 168 -478 589 -833 1088 -918 108 -18 334 -21 437
-5 585 91 1041 526 1166 1113 31 146 31 400 0 544 -117 541 -501 945 -1032
1085 -106 28 -131 31 -310 34 -134 2 -217 -1 -266 -10z m516 -51 c349 -78 644
-278 844 -573 100 -148 169 -311 207 -492 28 -137 31 -372 5 -504 -101 -517
-456 -911 -960 -1065 -235 -72 -538 -68 -784 10 -712 227 -1110 992 -885 1703
151 479 569 844 1067 931 109 19 402 13 506 -10z"/>
<path d="M1965 3022 c-185 -48 -331 -178 -403 -360 -23 -60 -26 -80 -26 -197
0 -109 4 -140 22 -190 95 -257 355 -415 623 -377 231 33 421 207 475 437 21
94 15 238 -14 319 -44 121 -151 250 -256 309 -123 69 -291 92 -421 59z m270
-47 c84 -22 150 -61 227 -134 343 -322 109 -901 -364 -901 -148 0 -279 59
-385 173 -226 245 -168 631 122 806 110 67 271 89 400 56z"/>
<path d="M2045 2870 c-15 -16 -39 -60 -51 -97 -22 -64 -25 -68 -51 -66 -15 2
-61 6 -100 9 -58 5 -77 3 -98 -10 -48 -31 -30 -96 51 -187 l45 -51 -46 -49
c-73 -78 -94 -149 -55 -184 27 -24 103 -29 170 -11 30 8 58 12 61 8 3 -4 17
-38 30 -76 58 -169 147 -165 208 9 13 36 28 65 35 65 6 0 42 -6 79 -14 99 -21
157 -1 157 55 0 42 -14 70 -64 129 -25 30 -46 56 -46 60 0 3 23 34 51 69 39
48 53 73 57 106 4 38 1 45 -22 60 -21 14 -42 17 -109 13 -45 -3 -89 -8 -98
-12 -14 -6 -20 3 -34 46 -50 150 -107 194 -170 128z m89 -33 c30 -39 60 -145
47 -161 -6 -7 -26 -17 -45 -24 -31 -11 -40 -11 -75 7 -22 12 -42 25 -45 30 -8
12 22 110 46 149 25 41 41 40 72 -1z m-200 -174 c27 -14 28 -17 22 -61 -11
-80 -69 -121 -113 -80 -68 62 -99 128 -71 156 15 15 122 5 162 -15z m495 0
c20 -18 20 -18 2 -58 -10 -22 -37 -57 -59 -79 l-40 -38 -41 28 c-34 25 -41 36
-46 77 -4 27 -4 51 -1 54 10 10 99 32 132 32 18 1 41 -7 53 -16z m-395 -39
c13 -5 14 -9 5 -20 -15 -18 -39 -18 -39 -1 0 12 9 27 16 27 1 0 10 -3 18 -6z
m166 -14 c0 -22 -8 -25 -30 -10 -13 9 -13 11 0 20 22 15 30 12 30 -10z m-32
-60 c41 -30 42 -31 42 -90 0 -59 -1 -60 -40 -86 -51 -34 -79 -33 -127 2 -51
38 -53 42 -53 95 0 54 15 78 61 94 54 20 73 17 117 -15z m-222 -98 c-4 -3 -12
0 -19 7 -9 9 -9 14 3 21 11 7 16 5 18 -6 2 -9 1 -18 -2 -22z m339 8 c0 -8 -8
-16 -17 -18 -13 -2 -18 3 -18 18 0 15 5 20 18 18 9 -2 17 -10 17 -18z m-361
-56 c24 -21 30 -36 34 -79 l4 -52 -45 -12 c-50 -12 -116 -15 -141 -5 -36 14
-16 74 47 142 37 38 62 40 101 6z m463 -27 c78 -83 80 -137 4 -137 -43 0 -137
26 -146 40 -3 6 -3 29 0 53 5 32 15 48 43 70 19 15 38 27 42 27 4 0 29 -24 57
-53z m-348 -51 c9 -11 8 -15 -5 -20 -20 -8 -34 1 -34 20 0 18 24 18 39 0z
m161 -6 c0 -19 -20 -27 -33 -13 -8 7 11 33 24 33 5 0 9 -9 9 -20z m-48 -51
c39 -20 40 -22 34 -61 -10 -61 -52 -138 -76 -138 -30 0 -57 33 -74 91 -24 79
-22 87 27 109 51 24 40 24 89 -1z"/>
<path d="M2066 2489 c-13 -20 -14 -26 -2 -44 7 -11 25 -21 39 -23 21 -3 28 2
33 24 14 53 -40 86 -70 43z"/>
<path d="M3053 3806 c-64 -82 -71 -101 -46 -134 40 -54 84 -42 147 38 28 35
46 67 42 75 -8 23 -18 18 -53 -28 -58 -77 -72 -88 -93 -77 -29 16 -25 32 26
95 27 32 43 62 40 70 -9 24 -19 18 -63 -39z"/>
<path d="M3215 3739 c-4 -5 1 -19 11 -30 17 -19 16 -21 -40 -78 -52 -53 -64
-81 -35 -81 5 0 34 25 62 56 49 53 55 56 76 45 17 -10 26 -10 35 -1 8 8 -1 22
-36 56 -48 45 -62 52 -73 33z"/>
<path d="M872 3667 c-18 -18 -32 -37 -32 -43 0 -9 35 -44 117 -118 29 -26 33
-27 39 -12 4 11 -3 27 -20 45 l-26 28 20 18 c20 18 21 18 50 -3 33 -25 47 -27
53 -9 4 13 -49 57 -70 57 -7 0 -13 8 -13 18 0 26 -31 52 -61 52 -15 0 -38 -13
-57 -33z m85 -23 c3 -9 -3 -25 -16 -37 -19 -20 -22 -20 -37 -5 -13 12 -14 20
-5 37 14 25 49 28 58 5z"/>
<path d="M3285 3568 c-38 -33 -71 -65 -73 -69 -6 -15 70 -98 84 -92 21 8 17
24 -13 55 -22 23 -24 30 -13 43 17 21 28 19 54 -12 13 -15 28 -23 34 -19 17
10 15 21 -12 53 -23 28 -24 30 -6 41 16 10 23 7 45 -19 16 -20 31 -29 41 -25
9 3 14 10 12 15 -3 9 -76 91 -80 91 -2 0 -34 -28 -73 -62z"/>
<path d="M762 3538 c-18 -18 -17 -21 43 -104 30 -42 55 -81 55 -85 0 -10 -49
-11 -100 -3 -33 5 -37 10 -51 57 -14 48 -16 50 -27 30 -9 -17 -9 -30 3 -63 20
-56 20 -55 -19 -32 -34 20 -46 19 -46 -3 0 -12 153 -115 171 -115 20 0 7 30
-21 50 -40 29 -29 43 29 35 44 -5 47 -4 69 30 16 26 20 40 13 52 -6 12 -4 24
6 40 13 19 22 23 43 18 19 -4 29 -2 33 8 5 13 -25 29 -178 93 -6 3 -16 -1 -23
-8z m79 -54 c25 -12 28 -18 18 -30 -15 -18 -12 -19 -37 16 -26 34 -23 36 19
14z"/>
<path d="M3462 3413 c-35 -7 -102 -76 -102 -105 0 -42 36 -78 77 -78 44 0 99
33 118 70 20 39 19 55 -7 84 -25 27 -51 35 -86 29z m58 -48 c36 -44 -58 -126
-105 -91 -26 19 -14 57 24 83 39 27 64 29 81 8z"/>
<path d="M584 3253 c-12 -9 -57 -93 -52 -98 9 -8 169 -85 176 -85 16 0 45 78
38 104 -13 50 -125 105 -162 79z m94 -53 c34 -21 45 -66 18 -76 -13 -5 -116
41 -116 52 0 3 5 14 10 25 14 24 46 24 88 -1z"/>
<path d="M3515 3218 c-95 -48 -92 -45 -77 -60 8 -8 21 -7 50 5 l40 16 12 -29
c12 -28 29 -38 43 -24 3 4 -1 20 -9 36 -14 27 -14 31 3 43 16 12 20 10 36 -21
16 -32 35 -42 50 -28 9 10 -42 104 -56 104 -6 -1 -48 -19 -92 -42z"/>
<path d="M484 3045 c-10 -30 -16 -56 -13 -58 16 -13 184 -65 190 -59 12 13 39
104 33 113 -12 20 -32 6 -43 -31 -12 -40 -24 -47 -50 -31 -11 7 -11 15 -2 41
6 18 8 36 5 41 -10 16 -34 9 -34 -9 0 -28 -25 -56 -43 -49 -15 6 -15 10 -2 48
19 52 19 49 -4 49 -15 0 -24 -13 -37 -55z"/>
<path d="M3666 3064 c8 -31 2 -36 -83 -65 -56 -18 -74 -35 -57 -51 3 -4 41 7
85 23 l80 29 9 -25 c6 -17 14 -23 25 -19 9 4 14 12 12 18 -2 6 -12 35 -21 64
-13 39 -22 52 -37 52 -16 0 -18 -5 -13 -26z"/>
<path d="M458 2918 c-20 -15 -43 -97 -31 -108 4 -4 48 -17 97 -29 101 -25 101
-25 112 47 8 54 -15 84 -61 81 -16 -2 -40 3 -52 9 -28 15 -45 15 -65 0z m56
-37 c4 -5 2 -21 -3 -34 -7 -19 -15 -24 -30 -20 -24 6 -24 4 -11 37 9 26 34 35
44 17z m86 -41 c0 -34 -9 -41 -38 -33 -18 4 -21 10 -15 32 12 49 53 50 53 1z"/>
<path d="M3650 2902 c-52 -13 -96 -25 -98 -27 -3 -3 28 -117 33 -123 1 -1 9 0
18 3 12 5 13 13 5 42 -12 43 -5 63 21 63 15 0 22 -9 27 -35 5 -26 11 -35 26
-35 17 0 19 5 13 33 -4 17 -8 36 -9 42 0 5 9 11 21 13 18 3 22 -3 28 -37 5
-32 11 -41 27 -41 16 0 19 5 15 23 -3 12 -9 39 -12 60 -4 20 -10 39 -14 40 -3
2 -49 -8 -101 -21z"/>
<path d="M407 2738 c-8 -30 -5 -33 60 -53 86 -26 86 -35 0 -35 l-77 0 0 -28
c0 -29 1 -29 83 -40 105 -15 117 -15 117 2 0 10 -16 17 -47 21 -78 11 -82 20
-11 23 47 2 68 7 72 18 3 8 0 17 -7 19 -6 3 -37 14 -67 25 l-55 20 68 -6 c58
-5 67 -4 67 10 0 9 -3 16 -7 16 -8 0 -120 17 -164 24 -21 4 -28 0 -32 -16z"/>
<path d="M3650 2743 c-31 -12 -60 -47 -60 -75 0 -35 32 -68 66 -68 28 0 25 15
-8 38 -30 22 -19 55 22 69 69 22 124 -14 86 -56 -19 -21 -21 -41 -3 -41 18 0
32 12 46 37 17 33 14 51 -14 78 -19 20 -34 25 -72 24 -26 0 -55 -3 -63 -6z"/>
<path d="M3617 2563 c-20 -19 -5 -33 38 -33 43 0 45 -1 45 -29 0 -31 -14 -41
-61 -41 -19 0 -29 -5 -29 -15 0 -12 18 -15 105 -15 98 0 105 1 105 20 0 17 -7
20 -40 20 -38 0 -40 2 -40 30 0 28 3 30 35 30 28 0 35 4 35 20 0 19 -7 20 -93
20 -52 0 -97 -3 -100 -7z"/>
<path d="M486 2525 c-140 -37 -142 -56 -10 -99 49 -16 95 -31 102 -33 7 -3 12
3 12 15 0 11 -8 22 -20 25 -14 4 -20 14 -20 35 0 22 6 32 20 37 11 3 20 15 20
26 0 23 7 23 -104 -6z m24 -54 c0 -17 -4 -19 -32 -10 -18 5 -35 9 -38 10 -11
1 36 18 53 18 10 1 17 -6 17 -18z"/>
<path d="M3605 2391 c-3 -2 -5 -10 -5 -18 0 -9 18 -13 65 -13 36 0 65 -4 65
-8 0 -4 -29 -19 -65 -32 -45 -17 -65 -29 -65 -42 0 -18 26 -24 143 -31 50 -3
57 -1 57 15 0 15 -8 18 -54 18 -30 0 -57 4 -60 8 -3 5 24 19 60 32 74 28 87
55 32 64 -49 8 -168 13 -173 7z"/>
<path d="M560 2295 c0 -8 9 -15 20 -15 11 0 20 7 20 15 0 8 -9 15 -20 15 -11
0 -20 -7 -20 -15z"/>
<path d="M555 2243 c-11 -3 -24 -9 -29 -13 -4 -5 -24 -6 -42 -3 -55 9 -78 -18
-69 -81 3 -28 8 -53 10 -57 4 -5 120 11 183 26 12 3 22 13 22 21 0 14 -8 15
-46 9 l-45 -6 3 33 c3 28 8 34 33 38 18 3 31 12 33 23 4 17 -11 20 -53 10z
m-55 -69 c15 -39 13 -44 -20 -44 -26 0 -30 3 -30 29 0 26 9 38 33 40 4 1 12
-11 17 -25z"/>
<path d="M3596 2197 c-65 -65 -4 -147 109 -147 12 0 34 10 49 21 23 18 27 28
24 62 -4 51 -38 78 -107 85 -43 4 -53 1 -75 -21z m118 -28 c31 -14 39 -34 26
-60 -13 -24 -76 -26 -108 -3 -21 14 -30 53 -15 67 10 11 70 8 97 -4z"/>
<path d="M611 2081 c-21 -13 -6 -41 18 -34 24 6 23 5 15 27 -7 18 -13 19 -33
7z"/>
<path d="M3535 2000 c-16 -48 -14 -70 6 -70 5 0 12 6 14 13 2 6 9 24 14 39
l10 27 76 -26 c57 -19 80 -22 88 -14 7 7 7 14 2 20 -9 8 -169 61 -186 61 -4 0
-15 -22 -24 -50z"/>
<path d="M577 2000 c-14 -11 -37 -20 -51 -20 -16 0 -31 -9 -41 -23 -13 -21
-13 -28 1 -70 9 -26 21 -47 27 -47 15 0 158 48 175 58 10 7 9 17 -3 53 -25 70
-60 86 -108 49z m63 -41 c15 -27 6 -49 -19 -49 -22 0 -39 39 -26 59 10 18 33
13 45 -10z m-81 -36 c10 -21 9 -28 -1 -34 -23 -15 -36 -10 -42 16 -12 49 22
63 43 18z"/>
<path d="M3490 1880 c-26 -26 -26 -80 0 -108 25 -26 83 -52 117 -52 33 0 73
42 73 77 -1 77 -137 136 -190 83z m124 -41 c46 -37 19 -89 -38 -75 -15 4 -39
18 -52 31 -20 20 -23 29 -14 45 14 27 69 27 104 -1z"/>
<path d="M711 1811 c-9 -6 -10 -14 -4 -25 8 -14 12 -14 27 -3 11 8 16 19 12
25 -9 14 -16 15 -35 3z"/>
<path d="M728 1744 c-21 -14 -38 -29 -38 -34 0 -6 -11 -10 -25 -10 -25 0 -65
-31 -65 -50 0 -16 38 -88 50 -95 6 -3 43 12 83 34 99 56 99 55 91 74 -6 16 -9
15 -42 -5 -34 -21 -35 -21 -48 -3 -20 28 -17 39 16 58 31 19 34 25 22 43 -5 8
-19 4 -44 -12z m-28 -100 c12 -22 12 -27 0 -34 -8 -6 -20 -10 -27 -10 -17 0
-34 35 -27 54 9 24 39 19 54 -10z"/>
<path d="M3430 1733 c-22 -8 -40 -34 -40 -59 0 -12 -7 -24 -15 -28 -25 -9 -17
-21 32 -45 l47 -23 18 24 c22 28 22 37 3 45 -9 3 -22 -2 -30 -13 -13 -18 -14
-17 -20 9 -15 58 41 76 95 31 39 -33 39 -75 0 -84 -35 -8 -40 -40 -5 -40 36 0
75 41 75 80 0 60 -100 125 -160 103z"/>
<path d="M785 1586 c-35 -15 -85 -70 -85 -92 0 -16 49 -94 59 -94 3 0 43 25
88 56 l82 57 -21 31 c-40 59 -65 67 -123 42z m79 -45 c16 -17 14 -20 -40 -57
-54 -37 -56 -38 -70 -19 -20 27 -18 33 17 66 36 33 69 37 93 10z"/>
<path d="M3301 1557 c-8 -10 -4 -19 19 -35 16 -12 46 -52 66 -89 34 -60 39
-64 47 -45 7 16 4 30 -14 58 l-23 37 25 -7 c63 -18 76 -18 82 -2 7 18 6 19
-70 36 -28 6 -66 22 -84 36 -39 28 -34 27 -48 11z"/>
<path d="M1002 1314 c-41 -29 -19 -94 33 -94 52 0 74 65 33 94 -12 9 -27 16
-33 16 -6 0 -21 -7 -33 -16z"/>
<path d="M3127 1312 c-33 -37 -11 -92 37 -92 26 0 56 29 56 53 0 23 -35 57
-58 57 -11 0 -26 -8 -35 -18z"/>
<path d="M2815 1164 c-16 -8 -41 -23 -54 -33 l-25 -19 41 -68 c59 -98 65 -105
83 -94 13 8 13 13 -3 41 -19 34 -12 53 25 65 15 4 26 -1 42 -21 17 -21 27 -26
45 -20 22 7 22 7 -13 50 -20 24 -36 49 -36 57 0 25 -31 58 -53 58 -12 0 -35
-7 -52 -16z m62 -41 c4 -11 -3 -24 -22 -39 -31 -24 -39 -24 -55 6 -9 16 -6 22
17 34 37 20 52 20 60 -1z"/>
<path d="M1356 1070 c-33 -50 -50 -68 -61 -63 -11 4 -15 16 -13 36 4 43 -26
49 -40 9 -12 -35 -1 -57 39 -77 41 -22 60 -9 115 77 35 55 43 73 32 79 -22 14
-24 12 -72 -61z"/>
<path d="M1441 1016 c-41 -42 -70 -79 -67 -85 9 -14 46 -15 46 -1 0 13 23 13
55 -2 16 -7 25 -19 25 -34 0 -13 9 -28 19 -34 23 -12 26 0 36 127 6 75 5 82
-13 92 -12 6 -22 11 -24 11 -2 0 -37 -33 -77 -74z m72 -23 c-5 -32 -25 -44
-38 -22 -6 9 34 64 41 56 1 -1 -1 -17 -3 -34z"/>
<path d="M2638 1073 c-16 -4 -18 -18 -18 -114 0 -109 0 -110 23 -107 15 2 23
11 25 30 4 35 56 56 82 33 16 -14 50 -12 50 4 0 8 -129 156 -138 157 -4 1 -15
0 -24 -3z m59 -115 c-26 -17 -37 -7 -37 30 l0 37 24 -30 c17 -21 21 -32 13
-37z"/>
<path d="M1606 934 c-15 -53 -25 -98 -24 -99 2 -1 32 -10 67 -19 42 -12 67
-14 73 -8 16 16 2 29 -46 41 l-44 11 20 72 c26 95 26 92 2 96 -19 3 -24 -8
-48 -94z"/>
<path d="M2503 1022 c-9 -6 -10 -17 -3 -42 5 -18 9 -35 7 -36 -1 -1 -19 -6
-39 -12 -36 -10 -37 -10 -45 27 -7 28 -13 35 -29 33 -10 -2 -20 -5 -22 -7 -2
-1 10 -46 25 -99 20 -69 32 -96 44 -96 25 0 27 8 17 51 -12 46 -12 47 31 59
31 8 31 8 42 -36 12 -46 13 -47 40 -36 14 6 13 17 -11 101 -27 95 -34 107 -57
93z"/>
<path d="M1837 943 c-13 -21 -38 -64 -56 -95 l-32 -58 25 0 c14 0 29 7 34 16
15 27 78 11 86 -21 4 -16 13 -25 26 -25 11 0 20 4 20 10 0 29 -23 168 -30 188
-14 34 -46 28 -73 -15z m43 -58 c0 -28 -4 -35 -20 -35 -24 0 -24 3 -5 40 20
39 25 38 25 -5z"/>
<path d="M2196 963 c-15 -4 -17 -11 -13 -41 3 -21 9 -66 13 -101 l7 -64 60 6
c81 7 102 29 102 101 0 77 -28 106 -99 105 -28 -1 -59 -3 -70 -6z m112 -45 c7
-7 12 -30 12 -53 0 -48 -13 -65 -51 -65 -24 0 -27 4 -33 46 -11 81 -10 84 27
84 18 0 38 -5 45 -12z"/>
<path d="M1980 860 c0 -55 2 -100 4 -100 2 0 11 -3 20 -6 14 -5 16 4 16 67 0
84 6 83 54 -8 22 -41 38 -59 54 -61 22 -3 22 -2 22 102 0 99 -1 106 -20 106
-17 0 -19 -8 -22 -67 l-3 -68 -35 68 c-30 58 -38 67 -62 67 l-28 0 0 -100z"/>
<path d="M1000 812 c0 -11 10 -26 21 -34 19 -12 20 -16 8 -35 -10 -16 -17 -19
-26 -12 -29 25 -41 -18 -27 -103 4 -21 11 -38 16 -38 6 0 7 16 3 40 -8 48 8
53 55 18 28 -20 29 -23 15 -44 -11 -17 -12 -25 -1 -39 11 -15 17 -8 59 54 l47
71 30 -15 c33 -17 38 -36 16 -54 -10 -8 -16 -9 -21 -1 -3 5 -11 10 -17 10 -14
0 -3 -130 13 -144 9 -8 10 0 6 32 -3 28 -1 42 6 42 7 0 26 16 42 36 l30 35 38
-16 c41 -17 41 -18 27 -45 -6 -12 -17 -16 -30 -13 -16 4 -20 0 -20 -21 0 -39
21 -116 31 -116 5 0 6 17 3 39 -5 30 -3 39 10 44 10 4 19 1 22 -8 3 -8 15 -17
27 -21 11 -3 31 -19 45 -35 16 -19 33 -29 52 -29 22 0 29 -5 32 -22 6 -43 24
-27 52 47 25 65 31 74 50 70 11 -3 39 -9 60 -13 22 -4 42 -14 44 -21 3 -10 -6
-12 -46 -6 -46 6 -52 5 -66 -17 -15 -22 -15 -29 0 -71 9 -26 20 -47 25 -47 11
0 11 18 0 45 -13 31 5 55 40 55 l31 0 -7 -48 c-5 -36 -3 -51 8 -60 12 -11 18
-1 34 65 16 66 22 79 41 81 26 4 26 -1 8 -85 -9 -44 -10 -65 -3 -72 19 -19 25
-12 37 47 6 31 13 67 16 80 3 14 12 22 24 22 11 0 20 7 20 15 0 8 -8 15 -19
15 -13 0 -20 10 -25 32 -8 42 -33 68 -66 68 -30 0 -50 -16 -50 -42 0 -22 26
-24 34 -3 9 24 45 18 58 -10 6 -14 9 -28 5 -31 -12 -13 -332 67 -387 97 -8 5
-49 23 -90 42 -42 19 -132 67 -200 107 -69 40 -128 75 -132 77 -5 2 -8 -5 -8
-15z m113 -86 c21 -16 21 -25 1 -47 -15 -17 -36 -16 -61 3 -9 8 -9 15 4 34 17
27 30 29 56 10z m365 -176 c50 -17 72 -29 72 -40 0 -29 -12 -30 -32 -5 -20 26
-80 35 -93 15 -8 -13 -52 -13 -60 -1 -8 13 16 62 29 59 6 -2 44 -14 84 -28z
m52 -89 c0 -11 -67 -24 -80 -16 -16 10 -12 33 7 44 18 10 73 -11 73 -28z"/>
<path d="M3022 792 c-17 -12 -4 -44 17 -40 17 4 22 39 6 45 -5 1 -16 -1 -23
-5z"/>
<path d="M2980 704 c-80 -38 -92 -47 -77 -56 13 -7 27 -6 47 2 41 17 57 4 30
-25 -16 -17 -18 -25 -9 -31 9 -5 8 -9 -7 -15 -33 -13 -42 -10 -63 26 -16 27
-27 35 -49 35 -32 0 -52 -16 -52 -42 0 -21 29 -38 67 -38 25 -1 26 -2 10 -14
-21 -16 -8 -30 36 -41 21 -6 27 -4 27 9 0 20 56 46 97 46 16 0 39 8 53 17 17
12 25 13 28 5 2 -7 15 -12 28 -12 l25 0 -41 74 c-34 62 -38 75 -25 80 20 7 10
26 -13 26 -9 0 -60 -21 -112 -46z m93 -36 l18 -32 -30 -30 c-25 -25 -33 -28
-43 -18 -11 11 -10 15 5 23 9 6 17 16 17 24 0 8 -8 19 -17 24 -17 10 -17 12 1
26 27 20 28 20 49 -17z m-203 -68 c9 -17 8 -20 -10 -20 -13 0 -20 7 -20 20 0
11 4 20 10 20 5 0 14 -9 20 -20z"/>
<path d="M2680 589 c-123 -45 -281 -80 -433 -96 -102 -11 -156 -20 -154 -27 3
-7 32 -10 76 -9 64 2 71 0 71 -17 0 -17 -7 -20 -49 -20 -57 0 -66 -8 -45 -38
18 -26 44 -29 44 -6 0 11 8 14 28 12 23 -3 27 -8 30 -38 3 -32 15 -49 35 -50
5 0 5 36 1 80 -4 54 -3 80 4 80 6 0 17 2 25 6 19 7 33 -56 15 -67 -9 -6 -7
-13 6 -28 22 -25 51 -27 60 -6 9 23 56 19 56 -5 0 -10 10 -24 22 -31 21 -11
21 -10 15 43 -4 30 -9 67 -13 84 -5 25 -2 30 25 40 24 10 31 9 35 -3 10 -26 6
-43 -9 -43 -28 0 -15 -19 38 -60 56 -42 67 -47 67 -30 0 5 -13 16 -30 25 -39
20 -30 42 20 47 28 2 47 -3 71 -19 40 -27 55 -19 16 9 -44 32 -33 78 19 78 8
0 21 -18 30 -40 11 -28 22 -40 36 -40 22 0 21 4 -17 97 -20 49 -21 59 -9 66
18 10 9 27 -14 26 -9 0 -42 -9 -72 -20z m40 -42 c0 -7 -16 -19 -36 -26 -21 -8
-39 -22 -44 -37 -13 -34 -56 -33 -64 2 -4 15 -6 27 -4 29 6 5 124 43 136 44 6
1 12 -5 12 -12z m-286 -89 c11 -43 8 -49 -26 -46 -29 3 -33 7 -36 36 -3 30 -1
32 26 32 22 0 31 -6 36 -22z"/>
<path d="M2802 408 c-17 -17 -15 -28 7 -28 10 0 22 8 25 17 5 11 10 13 17 6
15 -15 0 -42 -27 -49 -13 -3 -41 -3 -62 1 -28 5 -34 4 -26 -5 16 -17 84 -23
115 -12 32 13 43 47 22 67 -17 18 -54 20 -71 3z"/>
</g>
</svg>

